HIERARCHY
ROOT Hips
{
	OFFSET 0.000000 0.000000 0.000000
	CHANNELS 6 Xposition Yposition Zposition Zrotation Yrotation Xrotation 
	JOINT LHipJoint
	{
		OFFSET 0.000000 0.000000 0.000000
		CHANNELS 3 Zrotation Yrotation Xrotation
		JOINT LeftUpLeg
		{
			OFFSET 8.178360 -10.767780 5.035740
			CHANNELS 3 Zrotation Yrotation Xrotation
			JOINT LeftLeg
			{
				OFFSET 14.688660 -40.356780 0.000000
				CHANNELS 3 Zrotation Yrotation Xrotation
				JOINT LeftFoot
				{
					OFFSET 15.373200 -42.237540 0.000000
					CHANNELS 3 Zrotation Yrotation Xrotation
					JOINT LeftToeBase
					{
						OFFSET 0.945840 -2.598660 13.935300
						CHANNELS 3 Zrotation Yrotation Xrotation
						End Site
						{
							OFFSET 0.000000 0.000000 0.000000
						}
					}
				}
			}
		}
	}
	JOINT RHipJoint
	{
		OFFSET 0.000000 0.000000 0.000000
		CHANNELS 3 Zrotation Yrotation Xrotation
		JOINT RightUpLeg
		{
			OFFSET -7.833120 -10.767780 5.035740
			CHANNELS 3 Zrotation Yrotation Xrotation
			JOINT RightLeg
			{
				OFFSET -15.255180 -41.913300 0.000000
				CHANNELS 3 Zrotation Yrotation Xrotation
				JOINT RightFoot
				{
					OFFSET -15.409560 -42.337380 0.000000
					CHANNELS 3 Zrotation Yrotation Xrotation
					JOINT RightToeBase
					{
						OFFSET -0.988380 -2.715540 14.178900
						CHANNELS 3 Zrotation Yrotation Xrotation
						End Site
						{
							OFFSET 0.000000 0.000000 0.000000
						}
					}
				}
			}
		}
	}
	JOINT LowerBack
	{
		OFFSET 0.000000 0.000000 0.000000
		CHANNELS 3 Zrotation Yrotation Xrotation
		JOINT Spine
		{
			OFFSET 0.169620 12.213540 -1.160280
			CHANNELS 3 Zrotation Yrotation Xrotation
			JOINT Spine1
			{
				OFFSET 0.340320 12.293100 -0.256500
				CHANNELS 3 Zrotation Yrotation Xrotation
				JOINT Neck
				{
					OFFSET 0.000000 0.000000 0.000000
					CHANNELS 3 Zrotation Yrotation Xrotation
					JOINT Neck1
					{
						OFFSET -0.325020 10.477440 1.032120
						CHANNELS 3 Zrotation Yrotation Xrotation
						JOINT Head
						{
							OFFSET 0.624420 10.568160 -0.743820
							CHANNELS 3 Zrotation Yrotation Xrotation
							End Site
							{
								OFFSET 0.000000 0.000000 0.000000
							}
						}
					}
				}
				JOINT LeftShoulder
				{
					OFFSET 0.000000 0.000000 0.000000
					CHANNELS 3 Zrotation Yrotation Xrotation
					JOINT LeftArm
					{
						OFFSET 20.174460 7.205340 -1.867260
						CHANNELS 3 Zrotation Yrotation Xrotation
						JOINT LeftForeArm
						{
							OFFSET 29.898000 -0.000000 -0.000000
							CHANNELS 3 Zrotation Yrotation Xrotation
							JOINT LeftHand
							{
								OFFSET 20.901360 -0.000000 -0.000000
								CHANNELS 3 Zrotation Yrotation Xrotation
								JOINT LeftFingerBase
								{
									OFFSET 0.000000 0.000000 0.000000
									CHANNELS 3 Zrotation Yrotation Xrotation
									JOINT LeftHandIndex1
									{
										OFFSET 4.291560 -0.000000 -0.000000
										CHANNELS 3 Zrotation Yrotation Xrotation
										End Site
										{
											OFFSET 0.000000 0.000000 0.000000
										}
									}
								}
								JOINT LThumb
								{
									OFFSET 0.000000 0.000000 0.000000
									CHANNELS 3 Zrotation Yrotation Xrotation
									End Site
									{
										OFFSET 0.000000 0.000000 0.000000
									}
								}
							}
						}
					}
				}
				JOINT RightShoulder
				{
					OFFSET 0.000000 0.000000 0.000000
					CHANNELS 3 Zrotation Yrotation Xrotation
					JOINT RightArm
					{
						OFFSET -18.819600 8.244300 -2.427900
						CHANNELS 3 Zrotation Yrotation Xrotation
						JOINT RightForeArm
						{
							OFFSET -31.451400 -0.000000 -0.000000
							CHANNELS 3 Zrotation Yrotation Xrotation
							JOINT RightHand
							{
								OFFSET -20.665020 -0.000000 -0.000000
								CHANNELS 3 Zrotation Yrotation Xrotation
								JOINT RightFingerBase
								{
									OFFSET 0.000000 0.000000 0.000000
									CHANNELS 3 Zrotation Yrotation Xrotation
									JOINT RightHandIndex1
									{
										OFFSET -3.735180 -0.000000 -0.000000
										CHANNELS 3 Zrotation Yrotation Xrotation
										End Site
										{
											OFFSET 0.000000 0.000000 0.000000
										}
									}
								}
								JOINT RThumb
								{
									OFFSET 0.000000 0.000000 0.000000
									CHANNELS 3 Zrotation Yrotation Xrotation
									End Site
									{
										OFFSET 0.000000 0.000000 0.000000
									}
								}
							}
						}
					}
				}
			}
		}
	}
}
MOTION
Frames:	6
Frame Time:	0.0333333
74.587578 107.098770 60.046044 5.314631 -53.976634 -2.924884 -1.654817 1.378927 1.827745 -11.599585 -5.760210 -14.691181 8.891107 16.642168 57.657512 0.207494 -5.287282 6.481077 0.534000 -4.682300 -13.004500 0.315200 -1.314069 1.147511 31.003108 0.078685 -8.507011 -0.906990 -6.647347 20.579826 0.063093 -1.461532 -2.594627 -2.593500 -10.005900 28.995900 -0.058230 0.906547 7.998686 1.214707 1.306645 1.349133 -1.010882 0.603123 -4.363863 -12.564547 -9.106325 -13.344064 8.722648 -11.271856 17.905178 4.359600 -5.415300 13.279500 -6.405659 -0.304355 -1.677840 -84.472996 6.959831 17.596340 15.533517 -22.154146 -3.531653 -1.742558 -2.388459 11.411387 22.811843 27.374571 12.587700 -7.125000 0.000000 0.000000 -8.597100 62.080400 -3.585400 4.855058 1.594837 -0.919269 83.442852 0.191331 23.196353 -26.170488 35.786994 -9.107810 0.352283 -0.067409 1.236228 -15.260662 10.188574 -2.842400 7.125000 0.000000 0.000000 8.089500 -19.418000 4.989600 
73.377084 107.062782 61.517472 5.876191 -61.287556 -3.535781 -1.668029 1.328768 1.681235 -11.029771 -7.284467 -15.416329 8.875493 16.701130 57.546002 0.019919 -2.158501 3.320343 0.424500 -4.181800 -11.588700 0.304212 -1.328375 1.204846 30.817423 2.056085 -5.728739 -0.910292 -6.518011 20.361575 -0.602216 2.450778 -2.014075 -2.862100 -10.468300 30.507000 0.041031 1.203852 8.082594 1.229311 1.698321 1.328546 -1.060306 0.812437 -4.459423 -12.781188 -8.785715 -13.320612 8.441101 -10.806052 18.303917 4.381300 -5.294400 13.385100 -6.370722 -0.264538 -1.707512 -84.327126 8.125926 18.659072 15.588706 -22.283406 -3.578070 -1.642951 -2.395314 10.192888 22.299063 26.647278 11.999000 -7.125000 0.000000 0.000000 -8.789900 61.173200 -3.477800 4.843604 1.543305 -0.920320 83.198370 0.869146 24.849613 -26.400837 36.024507 -9.264190 0.347768 -0.083648 0.874632 -15.007027 10.849672 -2.976100 7.125000 0.000000 0.000000 8.261900 -18.738000 5.224400 
72.156390 106.918818 62.844942 6.182416 -67.976515 -3.781636 -1.666583 1.259245 1.521654 -10.244669 -8.790238 -16.557032 8.528264 16.568741 56.394208 -0.091434 -0.554304 1.338576 0.295600 -3.496100 -9.663200 0.302455 -1.317649 1.249540 30.856761 3.915582 -3.695591 -0.989540 -6.591500 20.717975 -0.994542 5.303505 -0.777454 -1.287200 -7.189000 20.276600 0.501292 1.286846 8.213277 1.137878 1.856848 1.255274 -1.431921 0.889641 -4.628728 -13.482673 -8.808915 -13.160229 9.277108 -10.784408 18.179263 4.885500 -5.287100 13.433900 -6.359633 -0.157737 -1.732084 -83.665017 9.059254 19.202874 15.593175 -22.352273 -3.601206 -1.522563 -2.336190 9.769531 21.232751 25.440441 10.916300 -7.125000 0.000000 0.000000 -9.376600 59.594500 -3.359400 4.806825 1.593698 -0.889587 83.457262 1.474031 26.210644 -26.456910 36.072411 -9.303038 0.361784 -0.076585 0.696999 -15.517043 10.635824 -3.021100 7.125000 0.000000 0.000000 7.895800 -18.931400 4.954100 
70.864314 106.824042 64.176606 8.221404 -73.269875 -5.807275 -1.754537 1.177816 1.359172 -10.167845 -10.832068 -17.354669 7.764738 16.152312 53.931510 -0.110581 0.050686 -0.655337 0.856700 -5.902600 -16.502200 0.342495 -1.297620 1.293835 30.094885 5.606932 -2.050187 -1.148621 -6.892129 21.675455 -1.400226 8.034058 -1.673878 -2.298900 -9.462800 27.254100 0.800674 1.302753 8.362983 1.035462 1.898348 1.399378 -1.742914 0.927931 -4.397210 -13.212040 -8.314628 -13.473714 8.681797 -10.025758 18.021735 4.717400 -5.001400 13.256400 -6.368518 -0.194788 -1.716546 -82.911663 9.030251 20.462597 15.385070 -22.094045 -3.521408 -1.428838 -2.290229 8.732498 20.497575 24.257940 10.081200 -7.125000 0.000000 0.000000 -9.571800 58.141800 -3.096200 4.818505 1.551286 -0.890869 83.599595 2.373191 25.906513 -26.181777 35.805172 -9.127745 0.363149 -0.072744 1.136191 -15.658304 10.315859 -2.957800 7.125000 0.000000 0.000000 7.798500 -19.257800 4.834800 
69.346698 106.805448 65.384100 13.076463 -78.655168 -10.619421 -1.774776 1.067433 1.242783 -10.120373 -10.402809 -18.864118 6.709845 15.491610 50.450043 0.126504 -1.669482 -1.649244 0.925100 -6.127400 -17.154500 0.415502 -1.270324 1.331097 29.134529 6.326175 -0.281840 -1.179876 -6.901305 21.740541 -1.634654 9.768944 -2.109999 -1.976300 -8.816500 25.222900 0.503942 1.418056 8.613502 0.838741 1.997446 1.477840 -1.882663 1.005075 -4.342914 -12.472837 -8.046656 -14.340750 8.048309 -9.720345 18.284652 4.361700 -4.849300 13.433900 -6.366120 -0.247042 -1.702677 -81.965871 8.783450 19.763907 15.273339 -21.988105 -3.474995 -1.264435 -2.360209 8.542749 18.334985 24.818014 9.108400 -7.125000 0.000000 0.000000 -12.405200 58.238800 -4.058200 4.822012 1.524606 -0.914392 83.840932 2.542304 26.464770 -26.216538 35.835692 -9.150126 0.374629 -0.057841 0.990728 -16.072241 9.840717 -2.898500 7.125000 0.000000 0.000000 7.503000 -19.736300 4.567600 
67.932858 106.850436 66.358854 16.929828 -82.559750 -14.586135 -1.794036 0.951318 1.087534 -9.532304 -10.886192 -20.351780 5.483890 14.589319 46.183179 0.286251 -2.871290 -1.334086 1.000800 -6.366300 -17.851000 0.495336 -1.229446 1.377600 29.047512 5.930251 1.006486 -1.150634 -6.782502 21.443594 -1.663399 10.060442 -2.075590 -2.056200 -8.982300 25.739800 0.931231 1.427027 9.519007 0.898018 2.064465 1.517358 -1.936325 1.025071 -4.725120 -13.405359 -8.132751 -14.794994 8.921990 -9.588736 18.224047 4.940100 -4.784500 13.652100 -6.393549 -0.230897 -1.681051 -81.119485 7.861329 18.876858 15.103081 -21.752510 -3.388131 -1.331996 -2.281560 9.577338 18.663488 24.491786 9.172700 -7.125000 0.000000 0.000000 -11.809300 57.939800 -3.774400 4.805529 1.660218 -0.887052 83.584630 2.297753 26.464190 -26.250648 35.852577 -9.154778 0.409427 -0.045160 -0.794998 -17.076956 9.849893 -3.094400 7.125000 0.000000 0.000000 6.764700 -19.666600 4.122000 
